<?xml version="1.0" encoding="utf-8"?>
<!-- Generator: Adobe Illustrator 18.0.0, SVG Export Plug-In . SVG Version: 6.00 Build 0)  -->
<!DOCTYPE svg PUBLIC "-//W3C//DTD SVG 1.1//EN" "http://www.w3.org/Graphics/SVG/1.1/DTD/svg11.dtd">
<svg version="1.1" id="Layer_1" xmlns="http://www.w3.org/2000/svg" xmlns:xlink="http://www.w3.org/1999/xlink" x="0px" y="0px"
	 viewBox="0 0 16 16" enable-background="new 0 0 16 16" xml:space="preserve">
<rect x="-1.2" y="-4.5" display="none" fill="#8B8B8B" width="24.9" height="23"/>
<image display="none" overflow="visible" width="16" height="16" xlink:href="copy.png" >
</image>
<path fill-rule="evenodd" clip-rule="evenodd" fill="#FFFFFF" d="M10.5,2.5H2.9C1.8,2.5,1,3.3,1,4.4v8.8c0,1,0.8,1.9,1.9,1.9h7.6
	c1,0,1.9-0.8,1.9-1.9V4.4C12.5,3.3,11.6,2.5,10.5,2.5z M9.3,9.4H7.4v1.9c0,0.3-0.3,0.6-0.6,0.6c-0.3,0-0.6-0.3-0.6-0.6V9.4H4.2
	c-0.3,0-0.6-0.3-0.6-0.6c0-0.3,0.3-0.6,0.6-0.6h1.9V6.2c0-0.3,0.3-0.6,0.6-0.6c0.4,0,0.6,0.3,0.6,0.6v1.9h1.9c0.3,0,0.6,0.3,0.6,0.6
	C9.9,9.1,9.6,9.4,9.3,9.4z M13.1,0H4.8C4,0,3.2,0.6,3,1.3c0.2-0.1,0.3-0.1,0.5-0.1h8.3c1,0,1.9,0.8,1.9,1.9v9.4c0,0.2,0,0.4-0.1,0.5
	c0.8-0.2,1.4-0.9,1.4-1.8V1.9C15,0.8,14.2,0,13.1,0z"/>
</svg>
