<?xml version="1.0" encoding="utf-8"?>
<!-- Generator: Adobe Illustrator 18.0.0, SVG Export Plug-In . SVG Version: 6.00 Build 0)  -->
<!DOCTYPE svg PUBLIC "-//W3C//DTD SVG 1.1//EN" "http://www.w3.org/Graphics/SVG/1.1/DTD/svg11.dtd">
<svg version="1.1" id="Layer_1" xmlns="http://www.w3.org/2000/svg" xmlns:xlink="http://www.w3.org/1999/xlink" x="0px" y="0px"
	 viewBox="0 0 16 16" enable-background="new 0 0 16 16" xml:space="preserve">
<rect x="-1.2" y="-1.3" display="none" fill="#72A3C1" width="18.5" height="18.4"/>
<image display="none" overflow="visible" width="16" height="16" xlink:href="delete.png"  transform="matrix(1 0 0 1 -2.641600e-02 0)">
</image>
<path fill-rule="evenodd" clip-rule="evenodd" fill="#FFFFFF" d="M12.9,3H2.1C1.5,3,1,3.4,1,4s0.4,1,1,1h11c0.6,0,1-0.4,1-1
	S13.5,3,12.9,3z M2,13c0,1.2,0.8,2,2,2h7c1.2,0,2-0.8,2-2V7H2V13z M10,2c0-1.2-0.6-2-1.8-2H6.8C5.6,0,5,0.8,5,2H10z"/>
</svg>
