<?xml version="1.0" encoding="utf-8"?>
<!-- Generator: Adobe Illustrator 18.0.0, SVG Export Plug-In . SVG Version: 6.00 Build 0)  -->
<!DOCTYPE svg PUBLIC "-//W3C//DTD SVG 1.1//EN" "http://www.w3.org/Graphics/SVG/1.1/DTD/svg11.dtd">
<svg version="1.1" id="Layer_1" xmlns="http://www.w3.org/2000/svg" xmlns:xlink="http://www.w3.org/1999/xlink" x="0px" y="0px"
	 viewBox="0 0 16 16" enable-background="new 0 0 16 16" xml:space="preserve">
<rect x="-3.4" y="-2.8" display="none" fill="#7F7F7F" width="22.1" height="20.2"/>
<image display="none" overflow="visible" width="16" height="16" xlink:href="edit.png"  transform="matrix(1 0 0 1 4.438348e-03 0)">
</image>
<path fill-rule="evenodd" clip-rule="evenodd" fill="#FFFFFF" d="M15.8,2.2c-0.4-1.1-1.7-2.2-3-2.2c-0.5,0-0.9,0.2-1.3,0.5L2.9,9.3
	c0,0-0.1,0.1-0.1,0.1c0,0,0,0,0,0L0,15.3c-0.1,0.2,0,0.4,0.1,0.6C0.2,15.9,0.4,16,0.5,16c0.1,0,0.1,0,0.2,0l5.9-2.6h0c0,0,0,0,0.1,0
	c0,0,0.1,0,0.1-0.1l8.7-8.8C16,3.9,16.2,3.1,15.8,2.2z M2.8,14l-0.7-0.7l1.4-3h0v0l1.7,0.5l0.5,1.9L2.8,14z M12.6,2.3l-7,7
	C5.5,9.4,5.3,9.5,5.2,9.5C5.1,9.5,5,9.4,4.9,9.3C4.7,9.2,4.7,9,4.7,8.9c0-0.1,0-0.2,0.1-0.3l6.8-6.7l0.3-0.3c0.2-0.2,0.5-0.2,0.7,0
	C12.8,1.8,12.8,2.1,12.6,2.3z"/>
</svg>
