<?xml version="1.0" encoding="utf-8"?>
<!-- Generator: Adobe Illustrator 18.0.0, SVG Export Plug-In . SVG Version: 6.00 Build 0)  -->
<!DOCTYPE svg PUBLIC "-//W3C//DTD SVG 1.1//EN" "http://www.w3.org/Graphics/SVG/1.1/DTD/svg11.dtd">
<svg version="1.1" id="Layer_1" xmlns="http://www.w3.org/2000/svg" xmlns:xlink="http://www.w3.org/1999/xlink" x="0px" y="0px"
	 viewBox="0 0 16 16" enable-background="new 0 0 16 16" xml:space="preserve">
<image overflow="visible" width="16" height="16" xlink:href="move.png"  transform="matrix(1 0 0 1 -4.166665e-02 0)">
</image>
<path fill-rule="evenodd" clip-rule="evenodd" fill="#FFFFFF" d="M15.7,7.6l-3-2.5C12.7,5,12.5,5,12.4,5c-0.1,0-0.1,0-0.2,0
	c-0.2,0.1-0.3,0.3-0.3,0.5V7H9V4h1.5c0.2,0,0.4-0.1,0.5-0.3c0.1-0.2,0-0.4-0.1-0.5l-2.5-3C8.2,0.1,8.1,0,8,0C7.8,0,7.7,0.1,7.6,0.2
	l-2.5,3C5,3.3,4.9,3.5,5,3.7C5.1,3.9,5.3,4,5.5,4H7v3H4V5.5C4,5.3,3.9,5.1,3.7,5C3.6,5,3.6,5,3.5,5C3.4,5,3.3,5,3.2,5.1l-3,2.5
	C0.1,7.7,0,7.8,0,8c0,0.1,0.1,0.3,0.2,0.4l3,2.5c0.1,0.1,0.2,0.1,0.3,0.1c0.1,0,0.1,0,0.2,0C3.9,10.8,4,10.6,4,10.4V9h3v3H5.5
	c-0.2,0-0.4,0.1-0.5,0.3c-0.1,0.2,0,0.4,0.1,0.5l2.5,3c0.1,0.1,0.2,0.2,0.4,0.2c0.1,0,0.3-0.1,0.4-0.2l2.5-3
	c0.1-0.1,0.2-0.4,0.1-0.5c-0.1-0.2-0.3-0.3-0.5-0.3H9V9h3v1.5c0,0.2,0.1,0.4,0.3,0.5c0.1,0,0.1,0,0.2,0c0.1,0,0.2,0,0.3-0.1l3-2.5
	c0.1-0.1,0.2-0.2,0.2-0.4C15.9,7.8,15.9,7.7,15.7,7.6z"/>
</svg>
