<svg viewBox="0 0 512 512" xmlns="http://www.w3.org/2000/svg" xmlns:xlink="http://www.w3.org/1999/xlink"><linearGradient id="a" gradientTransform="matrix(1 0 0 -1 0 -10886)" gradientUnits="userSpaceOnUse" x1="0" x2="512" y1="-11142" y2="-11142"><stop offset="0" stop-color="#00f1ff"/><stop offset=".231" stop-color="#00d8ff"/><stop offset=".5138" stop-color="#00c0ff"/><stop offset=".7773" stop-color="#00b2ff"/><stop offset="1" stop-color="#00adff"/></linearGradient><path d="m512 256c0 141.386719-114.613281 256-256 256s-256-114.613281-256-256 114.613281-256 256-256 256 114.613281 256 256zm0 0" fill="url(#a)"/><path d="m256 378.40625c-11.703125 0-22.707031-4.558594-30.980469-12.832031l-141.1875-141.1875c-8.273437-8.273438-12.832031-19.277344-12.832031-30.980469s4.558594-22.707031 12.832031-30.980469c8.273438-8.273437 19.277344-12.832031 30.980469-12.832031h282.375c11.703125 0 22.703125 4.558594 30.980469 12.832031 8.273437 8.273438 12.832031 19.277344 12.832031 30.980469s-4.558594 22.707031-12.835938 30.980469c-5.855468 5.855469-15.355468 5.855469-21.210937 0-5.859375-5.859375-5.859375-15.355469 0-21.210938 2.609375-2.609375 4.046875-6.078125 4.046875-9.769531 0-3.6875-1.4375-7.15625-4.046875-9.765625s-6.078125-4.046875-9.769531-4.046875h-282.371094c-3.6875 0-7.15625 1.4375-9.765625 4.046875s-4.046875 6.078125-4.046875 9.765625c0 3.691406 1.4375 7.160156 4.046875 9.769531l141.183594 141.183594c2.609375 2.609375 6.078125 4.046875 9.769531 4.046875s7.15625-1.4375 9.769531-4.046875l92.695313-93.101563c5.84375-5.875 15.339844-5.894531 21.210937-.046874 5.871094 5.84375 5.890625 15.339843.046875 21.210937l-92.71875 93.128906c-8.296875 8.300781-19.300781 12.855469-31.003906 12.855469zm0 0" fill="#fff"/></svg>