<?xml version="1.0" standalone="no"?><!DOCTYPE svg PUBLIC "-//W3C//DTD SVG 1.1//EN" "http://www.w3.org/Graphics/SVG/1.1/DTD/svg11.dtd"><svg t="1589461666419" class="icon" viewBox="0 0 1308 1024" version="1.1" xmlns="http://www.w3.org/2000/svg" p-id="3279" width="61.3125" height="48" xmlns:xlink="http://www.w3.org/1999/xlink"><defs><style type="text/css"></style></defs><path d="M1223.111111 0a85.333333 85.333333 0 0 1 85.333333 85.333333v848.327111a85.333333 85.333333 0 0 1-85.333333 85.333334H85.333333a85.333333 85.333333 0 0 1-85.333333-85.333334V85.333333a85.333333 85.333333 0 0 1 85.333333-85.333333h1137.777778z m-267.264 354.816c-21.191111-43.150222-84.593778-42.723556-105.187555 0.711111l-121.884445 257.365333c-18.176 38.627556-72.248889 44.487111-98.872889 10.638223l-48.839111-62.264889c-24.632889-31.488-74.24-29.155556-95.573333 4.551111l-80.526222 126.691555c-19.683556 31.061333-64.170667 36.010667-90.624 10.069334a59.164444 59.164444 0 0 0-86.869334 4.807111L183.182222 762.197333C153.258667 799.089778 180.451556 853.333333 228.835556 853.333333h879.217777c42.695111 0 70.798222-43.150222 52.48-80.497777zM398.051556 142.222222c-73.329778 0-132.835556 56.888889-132.835556 127.004445s59.505778 127.004444 132.835556 127.004444 132.835556-56.888889 132.835555-127.004444c0-70.144-59.505778-127.004444-132.835555-127.004445z" p-id="3280" fill="#ffffff"></path></svg>