<?xml version="1.0" standalone="no"?><!DOCTYPE svg PUBLIC "-//W3C//DTD SVG 1.1//EN" "http://www.w3.org/Graphics/SVG/1.1/DTD/svg11.dtd"><svg t="1574936662656" class="icon" viewBox="0 0 1024 1024" version="1.1" xmlns="http://www.w3.org/2000/svg" p-id="5158" xmlns:xlink="http://www.w3.org/1999/xlink" width="64" height="64"><defs><style type="text/css"></style></defs><path d="M995.328 601.088L837.12 81.92l-701.44 148.48L189.44 420.352 24.576 463.872s76.8 244.736 127.488 406.016c50.688 161.28 172.544 84.48 172.544 84.48s529.92-222.72 610.304-256.512c76.288-31.744 60.416-96.768 60.416-96.768zM207.872 842.752L102.912 509.44l105.984-24.576L337.92 915.968l45.056-27.136c-143.872 76.8-175.104-46.08-175.104-46.08z m707.584-180.736s-100.864 38.912-218.112 87.04l-75.264-239.616-246.272 76.8 82.944 265.216c-24.576 11.264-46.592 22.016-65.024 31.232L264.704 472.064 208.896 276.48l611.84-140.8s115.2 384 133.632 443.392c18.944 59.392-38.912 82.944-38.912 82.944z m-37.888-218.112l-204.288 65.024 15.872 51.2L892.416 491.52l-14.848-47.616z m-178.176 148.48l15.872 51.2 201.728-74.24-14.848-47.616-202.752 70.656zM396.8 324.096l12.8 40.96c6.656 21.504 13.312 40.448 20.992 58.368H430.08c-11.776-13.824-25.6-29.696-38.912-41.984l-47.104-44.544-39.936 9.728 45.568 145.408 31.232-9.216-13.824-43.52c-7.168-23.552-14.336-43.52-20.992-62.464h1.024c12.288 14.848 28.16 30.72 41.472 43.52l48.128 46.08 33.792-9.728-44.032-139.776-29.696 7.168z m123.904 89.6l-10.24-32.256 49.152-13.824-7.68-25.088-49.664 13.312-8.704-28.16 52.224-13.312-7.68-25.088-83.968 20.48 43.52 138.752 85.504-25.088-7.68-25.088-54.784 15.36z m129.536-71.68c-1.024-13.824-3.072-27.136-5.632-42.496h0.512c6.144 14.336 11.776 26.112 18.432 38.912l27.648 53.248 29.184-8.704-9.728-136.192-27.648 6.656 6.656 54.784c2.56 15.872 4.608 31.744 7.168 47.104h-0.512c-6.144-13.824-12.8-27.136-19.968-41.472L650.24 261.632l-29.696 7.168 6.144 56.32c2.048 17.408 4.096 33.792 6.656 49.152h-0.512c-6.144-12.8-14.336-29.184-22.016-44.032l-26.624-52.224-31.232 7.68 72.192 125.44 31.232-9.216-6.144-59.904z m124.928-32.768c15.36 1.536 22.016 4.096 24.576 12.288 2.56 8.192-2.048 15.36-13.824 18.432-10.752 3.072-23.04 2.048-31.232 0.512l2.048 25.088c7.68 2.048 22.016 2.048 34.816-1.536 30.72-9.216 38.912-30.72 32.768-51.2-5.632-17.408-17.92-26.112-40.448-29.184-16.896-2.048-24.064-4.096-26.624-11.776-2.048-6.144 1.536-13.312 12.8-16.384 10.752-2.56 19.968-1.536 25.088 0l-1.536-24.064c-7.68-1.536-17.408-2.048-30.72 1.024-26.624 6.656-38.4 27.136-31.744 48.64 6.656 17.92 23.04 26.112 44.032 28.16z m0 0" p-id="5159"></path></svg>