<?xml version="1.0" standalone="no"?><!DOCTYPE svg PUBLIC "-//W3C//DTD SVG 1.1//EN" "http://www.w3.org/Graphics/SVG/1.1/DTD/svg11.dtd"><svg t="1574936614016" class="icon" viewBox="0 0 1024 1024" version="1.1" xmlns="http://www.w3.org/2000/svg" p-id="4391" xmlns:xlink="http://www.w3.org/1999/xlink" width="64" height="64"><defs><style type="text/css"></style></defs><path d="M853.333333 657.066667v130.844444c0 11.377778-4.266667 19.911111-11.377777 28.444445-7.111111 7.111111-17.066667 11.377778-28.444445 11.377777H210.488889c-11.377778 0-19.911111-4.266667-28.444445-11.377777-7.111111-7.111111-11.377778-17.066667-11.377777-28.444445v-130.844444c0-11.377778 4.266667-19.911111 11.377777-28.444445 7.111111-7.111111 17.066667-11.377778 28.444445-11.377778h190.577778l55.466666 55.466667c15.644444 15.644444 34.133333 22.755556 55.466667 22.755556s39.822222-7.111111 55.466667-22.755556l55.466666-55.466667h190.577778c11.377778 0 19.911111 4.266667 28.444445 11.377778 7.111111 7.111111 11.377778 17.066667 11.377777 28.444445z m-133.688889-234.666667c4.266667 11.377778 2.844444 21.333333-5.688888 28.444444l-183.466667 184.888889c-4.266667 4.266667-11.377778 7.111111-18.488889 7.111111s-14.222222-2.844444-18.488889-7.111111L310.044444 452.266667c-8.533333-8.533333-9.955556-17.066667-5.688888-28.444445 4.266667-9.955556 12.8-15.644444 24.177777-15.644444h105.244445v-184.888889c0-7.111111 2.844444-12.8 7.111111-18.488889 5.688889-5.688889 11.377778-7.111111 18.488889-7.111111h105.244444c7.111111 0 12.8 2.844444 18.488889 7.111111 5.688889 5.688889 7.111111 11.377778 7.111111 18.488889v183.466667h105.244445c11.377778 0 19.911111 5.688889 24.177777 15.644444z m-31.288888 344.177778c5.688889-5.688889 7.111111-11.377778 7.111111-18.488889s-2.844444-12.8-7.111111-18.488889c-5.688889-5.688889-11.377778-7.111111-18.488889-7.111111s-12.8 2.844444-18.488889 7.111111c-5.688889 5.688889-7.111111 11.377778-7.111111 18.488889s2.844444 12.8 7.111111 18.488889c5.688889 5.688889 11.377778 7.111111 18.488889 7.111111 7.111111 1.422222 12.8-1.422222 18.488889-7.111111z m105.244444 0c5.688889-5.688889 7.111111-11.377778 7.111111-18.488889s-2.844444-12.8-7.111111-18.488889c-5.688889-5.688889-11.377778-7.111111-18.488889-7.111111s-12.8 2.844444-18.488889 7.111111c-5.688889 5.688889-7.111111 11.377778-7.111111 18.488889s2.844444 12.8 7.111111 18.488889c5.688889 5.688889 11.377778 7.111111 18.488889 7.111111 7.111111 1.422222 12.8-1.422222 18.488889-7.111111z" p-id="4392"></path></svg>