<?xml version="1.0" standalone="no"?><!DOCTYPE svg PUBLIC "-//W3C//DTD SVG 1.1//EN" "http://www.w3.org/Graphics/SVG/1.1/DTD/svg11.dtd"><svg t="1574936694083" class="icon" viewBox="0 0 1024 1024" version="1.1" xmlns="http://www.w3.org/2000/svg" p-id="7239" xmlns:xlink="http://www.w3.org/1999/xlink" width="64" height="64"><defs><style type="text/css"></style></defs><path d="M449.437101 617.148805c74.620499 75.484182 127.206266 0 127.206266 0l381.758996-353.47452c0-71.0328-59.950803-71.731718-59.950803-71.731718l-775.493211 0c-60.156496 0-57.61757 70.620407-57.61757 70.620407L449.437101 617.148805zM775.223047 474.6483l121.583991 283.882536L734.937925 513.104147 608.315991 633.972982c-49.972136 66.602907-98.611872 57.722656-98.611872 57.722656-57.965508 0-95.944004-59.936067-95.944004-59.936067L288.820565 512.823761 128.490568 757.556649 254.417648 480.08001 63.962328 298.782897l0 461.724966c0 71.039963 59.96206 71.039963 59.96206 71.039963l771.558437 0c57.968578 0 63.965398-68.813249 63.965398-68.813249L959.448223 298.782897 775.223047 474.6483z" p-id="7240" fill="#2c2c2c"></path></svg>