<?xml version="1.0" standalone="no"?><!DOCTYPE svg PUBLIC "-//W3C//DTD SVG 1.1//EN" "http://www.w3.org/Graphics/SVG/1.1/DTD/svg11.dtd"><svg t="1574936843420" class="icon" viewBox="0 0 1024 1024" version="1.1" xmlns="http://www.w3.org/2000/svg" p-id="10253" xmlns:xlink="http://www.w3.org/1999/xlink" width="64" height="64"><defs><style type="text/css"></style></defs><path d="M512.00307 0.346901c-282.582937 0-511.656169 229.073232-511.656169 511.656169 0 282.575774 229.073232 511.650029 511.656169 511.650029 282.576797 0 511.650029-229.074256 511.650029-511.650029C1023.653099 229.420133 794.578844 0.346901 512.00307 0.346901L512.00307 0.346901 512.00307 0.346901zM444.469977 766.410294c-51.512211 51.508117-135.328152 51.508117-186.875155-0.039909-51.519374-51.512211-51.519374-135.332245 0-186.841386L389.965619 447.153086c51.514257-51.508117 135.333268-51.508117 186.881294 0.039909 1.390673 1.390673 2.732228 2.815115 4.050246 4.254907 0.775666 0.639566 1.52268 1.312902 2.245134 2.039449 2.078335 2.078335 3.801583 4.381797 5.180999 6.826476 0.170892 0.214894 0.346901 0.428765 0.512676 0.648776-0.033769 0.029676-0.067538 0.063445-0.097214 0.086981 6.338359 11.960403 4.469801 27.129894-5.596462 37.19718-10.144034 10.149151-25.461905 11.95938-37.464263 5.445012-0.829901 0.883113-9.135054-7.382131-13.540388-11.793604l-0.034792-0.034792c-26.90579-26.90579-70.308299-27.118638-97.214089-0.218988l-132.581598 132.589784c-26.90579 26.90579-26.90579 70.523193 0 97.423867l0.034792 0.039909c26.900673 26.900673 70.523193 26.900673 97.428983 0l79.81379-79.81993c27.706015 13.599739 60.281945 14.037714 88.236624 1.181919L444.469977 766.410294 444.469977 766.410294 444.469977 766.410294zM766.410294 444.469977 634.039497 576.846914c-51.512211 51.512211-135.328152 51.512211-186.881294-0.039909-1.39579-1.39579-2.737344-2.819209-4.054339-4.254907-0.765433-0.639566-1.517563-1.312902-2.234901-2.039449-2.088568-2.078335-3.810792-4.380774-5.191232-6.821359-0.160659-0.218988-0.340761-0.433882-0.502443-0.652869 0.023536-0.024559 0.058328-0.058328 0.092098-0.086981-6.338359-11.960403-4.474918-27.130917 5.601578-37.19718 10.144034-10.144034 25.461905-11.954263 37.456077-5.445012 0.838088-0.883113 9.134031 7.387247 13.539364 11.793604l0.039909 0.034792c26.90579 26.90579 70.303182 27.125801 97.208972 0.220011l132.586714-132.586714c26.90579-26.90579 26.90579-70.52831 0-97.428983l-0.029676-0.034792c-26.90579-26.90579-70.523193-26.90579-97.428983 0l-79.823 79.814814c-27.619034-13.510712-60.281945-14.032598-88.231507-1.180895l123.344213-123.345236c51.512211-51.512211 135.328152-51.512211 186.881294 0.039909C817.923528 309.141826 817.923528 392.96186 766.410294 444.469977L766.410294 444.469977 766.410294 444.469977zM766.410294 444.469977" p-id="10254"></path></svg>