<svg viewBox="0 0 512 512" xmlns="http://www.w3.org/2000/svg" xmlns:xlink="http://www.w3.org/1999/xlink"><linearGradient id="a" gradientTransform="matrix(1 0 0 -1 0 -20854)" gradientUnits="userSpaceOnUse" x1="0" x2="512" y1="-21110" y2="-21110"><stop offset="0" stop-color="#00f1ff"/><stop offset=".231" stop-color="#00d8ff"/><stop offset=".5138" stop-color="#00c0ff"/><stop offset=".7773" stop-color="#00b2ff"/><stop offset="1" stop-color="#00adff"/></linearGradient><path d="m512 256c0 141.386719-114.613281 256-256 256s-256-114.613281-256-256 114.613281-256 256-256 256 114.613281 256 256zm0 0" fill="url(#a)"/><path d="m407.007812 105.28125c-3.261718-3.253906-6.679687-6.261719-10.164062-8.929688l-.601562-.460937c-.441407-.417969-.910157-.808594-1.402344-1.167969-14.167969-10.433594-29.722656-15.726562-46.230469-15.726562-25.667969 0-52.320313 13.058594-77.078125 37.761718-.261719.261719-.511719.527344-.75.808594l-1.019531 1.175782-1.183594 1.023437c-.273437.238281-.542969.488281-.800781.746094-24.703125 24.742187-37.761719 51.394531-37.761719 77.078125 0 11.023437 2.570313 21.996094 7.644531 32.613281.28125.589844.601563 1.160156.957032 1.707031.988281 1.519532 4.453124 6.792969 8.285156 11.976563l-55.738282 55.734375c-5.855468 5.855468-5.855468 15.355468 0 21.214844 2.929688 2.925781 6.769532 4.390624 10.605469 4.390624 3.839844 0 7.679688-1.464843 10.609375-4.390624l31.820313-31.824219c1.125 1.992187 2.207031 4.011719 3.128906 5.839843 3.085937 6.507813 4.652344 13.085938 4.652344 19.554688 0 17.445312-9.890625 36.628906-28.609375 55.503906l-1.582032 1.367188c-.546874.472656-1.058593.984375-1.53125 1.53125l-1.363281 1.574218c-18.886719 18.722657-38.070312 28.613282-55.503906 28.613282-9.605469 0-18.839844-3.085938-27.464844-9.171875-.292969-.261719-.59375-.511719-.90625-.753907l-1.613281-1.234374c-2.449219-1.878907-4.878906-4.015626-7.214844-6.351563-11.566406-11.550781-17.191406-23.613281-17.191406-36.875 0-17.449219 9.894531-36.636719 28.617188-55.507813l1.582031-1.371093c.542969-.46875 1.050781-.976563 1.519531-1.519531l1.363281-1.578126c17.914063-17.757812 36.007813-27.660156 52.355469-28.644531 8.269531-.5 14.570312-7.605469 14.070312-15.875s-7.605468-14.5625-15.875-14.070312c-24.226562 1.460937-48.488281 14.15625-72.117187 37.734375-.261719.257812-.507813.523437-.746094.800781l-1.027343 1.183594-1.1875 1.027343c-.273438.238282-.535157.484376-.792969.738282-24.703125 24.742187-37.761719 51.394531-37.761719 77.082031 0 21.332031 8.746094 40.882813 25.992188 58.105469 3.261718 3.253906 6.679687 6.261718 10.164062 8.929687l.601562.460938c.441407.417969.910157.808593 1.402344 1.167969 14.167969 10.433593 29.722656 15.722656 46.230469 15.722656 25.667969 0 52.320313-13.054688 77.078125-37.757813.261719-.261719.511719-.527343.75-.808593l1.019531-1.175782 1.183594-1.023437c.273437-.238281.542969-.488281.800781-.746094 24.703125-24.742187 37.761719-51.394531 37.761719-77.078125 0-11.019531-2.570313-21.992188-7.644531-32.609375-.039063-.082031-.078125-.160156-.117188-.242187-1.234375-2.472657-4.371094-8.542969-8.144531-14.421876l54.757813-54.753906c5.855468-5.859375 5.855468-15.355468 0-21.214844-5.859376-5.855468-15.355469-5.855468-21.214844 0l-31.226563 31.226563c-1.394531-1.988281-2.800781-4.054687-4.0625-5.972656-2.863281-6.269531-4.316406-12.597657-4.316406-18.824219 0-17.449219 9.890625-36.632812 28.613281-55.503906l1.582032-1.367188c.546874-.476562 1.058593-.988281 1.53125-1.535156l1.359374-1.570312c18.890626-18.722657 38.074219-28.617188 55.507813-28.617188 9.605469 0 18.839844 3.085938 27.464844 9.175781.289062.261719.59375.511719.902343.75l1.617188 1.238281c2.449219 1.875 4.878906 4.011719 7.214844 6.347657 11.566406 11.550781 17.1875 23.613281 17.1875 36.878906 0 17.449219-9.890625 36.632813-28.613282 55.507813l-1.582031 1.367187c-.542969.472656-1.050781.980469-1.519531 1.523437l-1.363281 1.574219c-17.417969 17.253907-35.746094 26.917969-53.042969 27.960938-8.269531.5-14.566406 7.605469-14.070312 15.875.480468 7.964843 7.085937 14.097656 14.960937 14.097656.300781 0 .609375-.007813.914063-.027344 24.839843-1.496093 50.015624-14.308593 72.804687-37.046875.261719-.257812.507813-.523437.746094-.800781l1.027343-1.183594 1.1875-1.027343c.273438-.238282.535157-.484376.792969-.738282 24.703125-24.742187 37.761719-51.398437 37.761719-77.082031 0-21.335937-8.746094-40.886719-25.992188-58.109375zm0 0" fill="#fff"/></svg>
