<svg height="512pt" viewBox="0 0 512 512" width="512pt" xmlns="http://www.w3.org/2000/svg" xmlns:xlink="http://www.w3.org/1999/xlink"><linearGradient id="a" gradientUnits="userSpaceOnUse" x1="0" x2="512" y1="256" y2="256"><stop offset="0" stop-color="#00f1ff"/><stop offset=".231" stop-color="#00d8ff"/><stop offset=".5138" stop-color="#00c0ff"/><stop offset=".7773" stop-color="#00b2ff"/><stop offset="1" stop-color="#00adff"/></linearGradient><path d="m512 256c0 141.386719-114.613281 256-256 256s-256-114.613281-256-256 114.613281-256 256-256 256 114.613281 256 256zm0 0" fill="url(#a)"/><path d="m412.386719 227.28125c8.285156 0 15-6.714844 15-15v-39.128906c0-30.195313-24.566407-54.761719-54.757813-54.761719h-180.246094c-29.617187 0-53.804687 23.644531-54.714843 53.046875h-5.035157c-26.480468 0-48.019531 21.464844-48.019531 47.851562v126.472657c0 26.382812 21.539063 47.847656 48.019531 47.847656h193.722657c26.476562 0 48.019531-21.464844 48.019531-47.847656v-12.496094c29.386719-.929687 53.011719-25.109375 53.011719-54.714844 0-8.285156-6.714844-15-15-15-8.28125 0-15 6.714844-15 15 0 13.0625-10.171875 23.789063-23.011719 24.6875v-83.949219c0-26.386718-21.542969-47.851562-48.019531-47.851562h-158.664063c.882813-12.851562 11.617188-23.046875 24.691406-23.046875h180.246094c13.648438 0 24.757813 11.109375 24.757813 24.761719v39.128906c0 8.285156 6.714843 15 15 15zm-86.03125 136.328125h-193.722657c-9.9375 0-18.019531-8.007813-18.019531-17.851563v-110.308593l89.550781 55.398437c7.8125 4.832032 16.570313 7.246094 25.328126 7.246094 8.757812 0 17.519531-2.414062 25.328124-7.246094l89.554688-55.398437v110.308593c0 9.84375-8.085938 17.851563-18.019531 17.851563zm10.507812-158.792969-97.824219 60.515625c-5.800781 3.585938-13.292968 3.589844-19.089843 0l-97.828125-60.515625c2.964844-2.117187 6.589844-3.378906 10.511718-3.378906h193.722657c3.921875 0 7.546875 1.261719 10.507812 3.378906zm0 0" fill="#fff"/></svg>