<svg height="512pt" viewBox="0 0 512 512" width="512pt" xmlns="http://www.w3.org/2000/svg" xmlns:xlink="http://www.w3.org/1999/xlink"><linearGradient id="a" gradientTransform="matrix(1 0 0 -1 0 -17294)" gradientUnits="userSpaceOnUse" x1="0" x2="512" y1="-17550" y2="-17550"><stop offset="0" stop-color="#00f1ff"/><stop offset=".231" stop-color="#00d8ff"/><stop offset=".5138" stop-color="#00c0ff"/><stop offset=".7773" stop-color="#00b2ff"/><stop offset="1" stop-color="#00adff"/></linearGradient><path d="m512 256c0 141.386719-114.613281 256-256 256s-256-114.613281-256-256 114.613281-256 256-256 256 114.613281 256 256zm0 0" fill="url(#a)"/><g fill="#fff"><path d="m282.261719 139.195312h-123.421875c-8.28125 0-15 6.714844-15 15v51.046876c0 8.285156 6.71875 15 15 15h123.421875c8.285156 0 15-6.714844 15-15v-51.046876c0-8.285156-6.714844-15-15-15zm-15 51.046876h-93.421875v-21.046876h93.421875zm0 0"/><path d="m198.257812 340.804688h-39.417968c-8.28125 0-15 6.714843-15 15 0 8.285156 6.71875 15 15 15h39.417968c8.285157 0 15-6.714844 15-15 0-8.285157-6.714843-15-15-15zm0 0"/><path d="m198.257812 240.644531h-39.417968c-8.28125 0-15 6.71875-15 15 0 8.285157 6.71875 15 15 15h39.417968c8.285157 0 15-6.714843 15-15 0-8.28125-6.714843-15-15-15zm0 0"/><path d="m282.261719 240.644531h-39.417969c-8.28125 0-15 6.71875-15 15 0 8.285157 6.71875 15 15 15h39.417969c8.285156 0 15-6.714843 15-15 0-8.28125-6.714844-15-15-15zm0 0"/><path d="m282.261719 291.050781h-39.417969c-8.28125 0-15 6.714844-15 15 0 8.28125 6.71875 15 15 15h39.417969c8.285156 0 15-6.71875 15-15 0-8.285156-6.714844-15-15-15zm0 0"/><path d="m282.261719 340.804688h-39.417969c-8.28125 0-15 6.714843-15 15 0 8.285156 6.71875 15 15 15h39.417969c8.285156 0 15-6.714844 15-15 0-8.285157-6.714844-15-15-15zm0 0"/><path d="m198.257812 291.050781h-39.417968c-8.28125 0-15 6.714844-15 15 0 8.28125 6.71875 15 15 15h39.417968c8.285157 0 15-6.71875 15-15 0-8.285156-6.714843-15-15-15zm0 0"/><path d="m411.5 319.109375c8.285156 0 15-6.714844 15-15v-32.308594c0-8.285156-6.714844-15-15-15h-62.542969v-154.300781c0-8.285156-6.714843-15-15-15h-227.457031c-8.285156 0-15 6.714844-15 15l-.003906 266.226562c0 29.648438 24.125 53.769532 53.773437 53.769532l227.457031.003906c.117188 0 .234376 0 .351563-.003906 14.230469-.089844 27.597656-5.671875 37.671875-15.746094 10.15625-10.15625 15.75-23.660156 15.75-38.023438 0-8.285156-6.714844-15-15-15-8.28125 0-15 6.714844-15 15 0 6.351563-2.472656 12.320313-6.960938 16.808594-4.492187 4.492188-10.460937 6.960938-16.808593 6.960938h-.003907c-13.105468 0-23.765624-10.664063-23.765624-23.769532v-81.925781h47.539062v17.308594c0 8.285156 6.714844 15 15 15zm-266.230469 73.386719c-13.109375 0-23.773437-10.660156-23.773437-23.769532l.003906-251.226562h197.457031v251.226562c0 8.53125 1.996094 16.601563 5.546875 23.773438zm0 0"/></g></svg>