<?xml version="1.0" standalone="no"?><!DOCTYPE svg PUBLIC "-//W3C//DTD SVG 1.1//EN" "http://www.w3.org/Graphics/SVG/1.1/DTD/svg11.dtd"><svg t="1574845925157" class="icon" viewBox="0 0 1024 1024" version="1.1" xmlns="http://www.w3.org/2000/svg" p-id="11571" width="64" height="64" xmlns:xlink="http://www.w3.org/1999/xlink"><defs><style type="text/css"></style></defs><path d="M759.466667 418.133333c-23.466667-4.266667-46.933333-6.4-59.733333-6.4-2.133333 0-4.266667 0-6.4 0 0 0-8.533333 0-21.333333 0-61.866667 0-102.4 12.8-108.8 32-6.4 25.6 0 85.333333 25.6 119.466667 21.333333 29.866667 70.4 51.2 115.2 51.2 14.933333 0 27.733333-2.133333 38.4-6.4 34.133333-14.933333 72.533333-100.266667 64-145.066667C800 437.333333 785.066667 424.533333 759.466667 418.133333zM780.8 482.133333c0 4.266667-4.266667 8.533333-8.533333 8.533333 0 0 0 0-2.133333 0-4.266667 0-8.533333-6.4-8.533333-10.666667 2.133333-8.533333 0-12.8-2.133333-17.066667-2.133333-4.266667-10.666667-6.4-21.333333-8.533333-17.066667-2.133333-36.266667-2.133333-44.8-2.133333l-4.266667 0c-4.266667 0-10.666667-4.266667-10.666667-10.666667 0-6.4 4.266667-10.666667 10.666667-10.666667l0 0 4.266667 0c10.666667 0 29.866667 0 49.066667 2.133333 12.8 2.133333 25.6 6.4 34.133333 17.066667C780.8 458.666667 782.933333 469.333333 780.8 482.133333z" fill="#2f4050" p-id="11572"></path><path d="M354.133333 409.6c-12.8 0-21.333333 0-21.333333 0-2.133333 0-4.266667 0-6.4 0-14.933333 0-36.266667 2.133333-59.733333 6.4-25.6 6.4-40.533333 19.2-46.933333 42.666667-8.533333 44.8 27.733333 130.133333 64 145.066667 10.666667 4.266667 23.466667 6.4 38.4 6.4 44.8 0 93.866667-21.333333 115.2-51.2 23.466667-34.133333 29.866667-93.866667 25.6-119.466667C456.533333 422.4 416 409.6 354.133333 409.6z" fill="#2f4050" p-id="11573"></path><path d="M512 128C300.8 128 128 300.8 128 512c0 211.2 172.8 384 384 384s384-172.8 384-384C896 300.8 723.2 128 512 128zM750.933333 631.466667c-14.933333 6.4-29.866667 8.533333-49.066667 8.533333-53.333333 0-110.933333-25.6-136.533333-61.866667-21.333333-29.866667-29.866667-70.4-32-102.4 0 0 0 0 0 0 0-10.666667-12.8-19.2-21.333333-19.2L512 456.533333c-8.533333 0-21.333333 8.533333-21.333333 19.2 0 0 0 0 0 0-2.133333 32-10.666667 72.533333-32 102.4-25.6 36.266667-83.2 61.866667-136.533333 61.866667-19.2 0-34.133333-2.133333-49.066667-8.533333-46.933333-19.2-89.6-119.466667-78.933333-174.933333 6.4-32 29.866667-55.466667 66.133333-61.866667 25.6-6.4 51.2-6.4 64-6.4 2.133333 0 4.266667 0 6.4 0 0 0 8.533333 0 23.466667 0 38.4 0 83.2 4.266667 110.933333 21.333333 8.533333 4.266667 27.733333 17.066667 49.066667 17.066667 21.333333 0 40.533333-12.8 49.066667-17.066667 27.733333-17.066667 72.533333-21.333333 110.933333-21.333333 12.8 0 23.466667 0 23.466667 0 2.133333 0 4.266667 0 6.4 0 12.8 0 38.4 2.133333 64 6.4 36.266667 8.533333 59.733333 29.866667 66.133333 61.866667C842.666667 512 797.866667 610.133333 750.933333 631.466667z" fill="#2f4050" p-id="11574"></path></svg>
