<svg height="512pt" viewBox="-1 0 512 512" width="512pt" xmlns="http://www.w3.org/2000/svg"><path d="m155 112h200c8.285156 0 15-6.714844 15-15v-82c0-8.285156-6.714844-15-15-15h-200c-8.285156 0-15 6.714844-15 15v82c0 8.285156 6.714844 15 15 15zm0 0"/><path d="m508.925781 131.429688-40-100c-2.277343-5.695313-7.792969-9.429688-13.925781-9.429688h-55v75c0 24.8125-20.1875 45-45 45h-200c-24.8125 0-45-20.1875-45-45v-75h-55c-6.132812 0-11.648438 3.734375-13.925781 9.429688l-40 100c-.710938 1.769531-1.074219 3.664062-1.074219 5.570312v20c0 25.128906 16.941406 46.355469 40 52.902344v132.097656h-5c-8.285156 0-15 6.714844-15 15s6.714844 15 15 15h5v125c0 8.285156 6.714844 15 15 15h105v-80h-15c-8.285156 0-15-6.714844-15-15s6.714844-15 15-15h60c8.285156 0 15 6.714844 15 15s-6.714844 15-15 15h-15v80h130v-80h-15c-8.285156 0-15-6.714844-15-15s6.714844-15 15-15h60c8.285156 0 15 6.714844 15 15s-6.714844 15-15 15h-15v80h105c8.285156 0 15-6.714844 15-15v-125h5c8.285156 0 15-6.714844 15-15s-6.714844-15-15-15h-5v-132.097656c23.058594-6.546875 40-27.773438 40-52.902344v-20c0-1.90625-.363281-3.800781-1.074219-5.570312zm-438.925781 210.570312v-132.09375c9.675781-2.746094 18.277344-8.070312 25-15.195312 10.035156 10.640624 24.253906 17.289062 40 17.289062s29.964844-6.648438 40-17.289062c10.035156 10.640624 24.253906 17.289062 40 17.289062s29.964844-6.648438 40-17.289062c10.035156 10.640624 24.253906 17.289062 40 17.289062s29.964844-6.648438 40-17.289062c10.035156 10.640624 24.253906 17.289062 40 17.289062s29.964844-6.648438 40-17.289062c6.722656 7.125 15.324219 12.449218 25 15.195312v132.09375zm0 0"/><path d="m205 262h-60c-24.8125 0-45 20.1875-45 45v5h150v-5c0-24.8125-20.1875-45-45-45zm0 0"/><path d="m350 262.363281v-15.363281c0-8.285156-6.714844-15-15-15s-15 6.714844-15 15v15.363281c-16.9375 2.433594-30 17.035157-30 34.636719v15h90v-15c0-17.601562-13.0625-32.203125-30-34.636719zm0 0"/></svg>