<?xml version="1.0" encoding="iso-8859-1"?>
<!-- Generator: Adobe Illustrator 21.0.0, SVG Export Plug-In . SVG Version: 6.00 Build 0)  -->
<svg xmlns="http://www.w3.org/2000/svg" xmlns:xlink="http://www.w3.org/1999/xlink" version="1.1" id="Capa_1" x="0px" y="0px" viewBox="0 0 512 512" style="enable-background:new 0 0 512 512;" xml:space="preserve" width="512" height="512">
<g>
	<path d="M408.768,122.626c33.713,0,61.141-27.505,61.141-61.313C469.909,27.505,442.481,0,408.768,0   c-33.714,0-61.142,27.505-61.142,61.313C347.626,95.121,375.054,122.626,408.768,122.626z"/>
	<path d="M161.141,122.626c33.714,0,61.142-27.505,61.142-61.313C222.283,27.505,194.855,0,161.141,0S99.999,27.505,99.999,61.313   C99.999,95.121,127.427,122.626,161.141,122.626z"/>
	<path d="M347.626,310.969c0,33.808,27.428,61.313,61.142,61.313c33.713,0,61.141-27.505,61.141-61.313   c0-33.809-27.428-61.313-61.141-61.313C375.054,249.655,347.626,277.16,347.626,310.969z"/>
	<path d="M161.141,225.478c-72.67,0-131.791,59.127-131.791,131.804c0,33.38,12.472,63.902,33.001,87.15l-41.958,41.963   c-5.857,5.858-5.856,15.356,0.001,21.214C23.323,510.536,27.161,512,31,512s7.679-1.465,10.607-4.394l43.044-43.049   c21.582,15.435,47.994,24.527,76.49,24.527c72.67,0,131.791-59.127,131.791-131.804S233.811,225.478,161.141,225.478z    M224.199,337.897l-70.337,70.345l-0.001,0.001c-2.929,2.928-6.769,4.393-10.606,4.393c-3.839,0-7.678-1.465-10.607-4.394   l-34.563-34.566c-5.857-5.858-5.856-15.356,0.001-21.214c5.858-5.856,15.355-5.855,21.214,0.001l23.955,23.958l59.73-59.736   c5.857-5.857,15.355-5.858,21.214-0.001C230.055,322.541,230.056,332.039,224.199,337.897z"/>
	<path d="M94.651,195.37H227.63c5.785,0,11.351-2.445,15.269-6.709c3.921-4.268,5.89-10.025,5.4-15.798   c-1.745-20.612-10.655-39.801-25.196-54.43c-15.4,16.786-37.477,27.319-61.962,27.319c-24.485,0-46.562-10.534-61.962-27.32   c-14.542,14.629-23.451,33.818-25.197,54.43c-0.489,5.772,1.479,11.53,5.4,15.798C83.301,192.925,88.866,195.37,94.651,195.37z"/>
	<path d="M342.279,195.37h132.979c5.785,0,11.351-2.445,15.269-6.709c3.921-4.268,5.89-10.025,5.4-15.798   c-1.745-20.612-10.655-39.801-25.196-54.43c-15.4,16.786-37.477,27.319-61.962,27.319c-24.485,0-46.562-10.534-61.962-27.32   c-14.542,14.629-23.451,33.818-25.197,54.43c-0.489,5.772,1.479,11.53,5.4,15.798C330.928,192.925,336.494,195.37,342.279,195.37z"/>
	<path d="M470.73,368.089c-15.4,16.786-37.477,27.319-61.962,27.319c-24.485,0-46.562-10.534-61.962-27.32   c-14.542,14.629-23.451,33.818-25.197,54.43c-0.489,5.772,1.479,11.53,5.4,15.798c3.918,4.264,9.483,6.709,15.269,6.709h132.979   c5.785,0,11.351-2.445,15.269-6.709c3.921-4.268,5.89-10.025,5.4-15.798C494.181,401.907,485.271,382.718,470.73,368.089z"/>
</g>















</svg>
